<?xml version="1.0" standalone="no"?><!DOCTYPE svg PUBLIC "-//W3C//DTD SVG 1.1//EN" "http://www.w3.org/Graphics/SVG/1.1/DTD/svg11.dtd" [<!ENTITY nbsp " ">]><svg data-noselect="" viewBox="108.03803866760887 167.50494682863498 400 300" width="400" ref="svg_canvas" height="300" preserveAspectRatio="none" version="1.1" xmlns="http://www.w3.org/2000/svg" style="background: #ffffff;"><g id="shape_AjwXCJgVSQ" ref="shape_AjwXCJgVSQ" key="shape_AjwXCJgVSQ" transform="translate(220,248.0321714893) rotate(0,80,49.967828510696) scale(1,1)" style="cursor:move;display:inline;opacity:1;" filter="">
            <g style="display:inline"><rect fill="rgba(0,0,0,0)" width="180" height="119.935657021393" x="-10" y="-10"></rect><svg version="1.1" id="图层_1" xmlns="http://www.w3.org/2000/svg" xmlns:xlink="http://www.w3.org/1999/xlink" x="0px" y="0px" width="160" height="99.935657021393" viewBox="10.189589500427246 43.904483795166016 179.6204071044922 112.19052124023438" enable-background="new 0 0 200 200" xml:space="preserve" preserveAspectRatio="none" data-parent="shape_AjwXCJgVSQ">
<g>
	<path fill="#246FDD" d="M106.321,89.494c0,0,21.712-23.689,49.111-19.623c20.564,3.052,29.926,14.137,34.378,20.14H176.37
		c0,0-9.943-9.084-23.78-10.899C140.013,77.462,129.843,78.121,106.321,89.494z"></path>
	<path fill="#246FDD" d="M147.161,71.716c0,0-5.801-22.574-33.028-27.054S61.92,55.92,43.31,82.687l22.517-4.021
		c0,0,19.354-29.195,47.101-24.24c16.083,2.872,24.699,10.109,27.916,18.496L147.161,71.716z"></path>
	<path fill="#24DD7F" d="M62.38,83.893c0,0-46.698,7.782-51.696,38.255c-4.136,25.216,18.611,33.947,33.43,33.947
		c18.036,0,112.698,0,112.698,0l1.206-5.687c0,0-71.397,0.324-101.38,0c-15.968-0.172-28.147-4.996-28.147-22.574
		c0-14.992,12.867-26.502,29.065-32.034L62.38,83.893z"></path>
</g>
</svg></g>
        </g><g id="shape_KGTd7uuhMV" ref="shape_KGTd7uuhMV" key="shape_KGTd7uuhMV" transform="translate(272.24821472168,354.32391357422) rotate(0,104.63989257812,16.326904296875) scale(1,1)" style="cursor:move;display:inline;opacity:1;" filter="">
            <g style="display:inline"><svg xmlns="http://www.w3.org/2000/svg" version="1.1" xmlns:xlink="http://www.w3.org/1999/xlink" overflow="hidden" style="top:0; left: 0" width="94.67529296875" height="32.65380859375" viewBox="0 0 89.67529296875 32.65380859375" preserveAspectRatio="none" data-parent="shape_KGTd7uuhMV"><rect fill="rgba(0,0,0,0)" width="94.67529296875" height="32.65380859375"></rect> <rect opacity="0"></rect><g transform="translate(0 0)" data-width="84.67529296875"><path fill="rgb(36, 111, 221)" d="M7.90-18.75Q9.86-18.75 11.22-17.80L11.22-17.80Q12.56-16.85 12.56-15.49L12.56-15.49L14.43-15.49Q14.43-17.63 12.56-19.12L12.56-19.12Q10.67-20.63 7.90-20.63L7.90-20.63Q5.11-20.63 3.27-19.32L3.27-19.32Q1.35-17.97 1.35-15.80L1.35-15.80Q1.35-13.48 3.20-12.34L3.20-12.34Q4.44-11.58 7.28-11.10L7.28-11.10Q10.46-10.53 11.34-10.17L11.34-10.17Q13.18-9.41 13.18-7.70L13.18-7.70Q13.18-6.23 11.63-5.31L11.63-5.31Q10.16-4.43 7.90-4.43L7.90-4.43Q5.59-4.43 4.08-5.62L4.08-5.62Q2.60-6.77 2.60-8.48L2.60-8.48L0.73-8.48Q0.73-5.99 2.73-4.30L2.73-4.30Q4.79-2.56 7.90-2.56L7.90-2.56Q10.97-2.56 12.95-3.91L12.95-3.91Q15.05-5.32 15.05-7.70L15.05-7.70Q15.05-10.10 13.21-11.28L13.21-11.28Q11.94-12.10 9.14-12.60L9.14-12.60Q5.83-13.20 5.08-13.49L5.08-13.49Q3.22-14.21 3.22-15.80L3.22-15.80Q3.22-17.16 4.59-17.98L4.59-17.98Q5.90-18.75 7.90-18.75L7.90-18.75Z" transform="translate(5 20.947265625)" data-glyph-w="15.78369140625"></path><path fill="rgb(36, 111, 221)" d="M6.34-2.88L6.34-18.44L0.73-18.44L0.73-20.31L13.81-20.31L13.81-18.44L8.20-18.44L8.20-2.88L6.34-2.88Z" transform="translate(20.78369140625 20.947265625)" data-glyph-w="14.53857421875"></path><path fill="rgb(36, 111, 221)" d="M13.42-7.86L4.50-7.86L2.29-2.88L0.24-2.88L8.00-20.31L9.92-20.31L17.68-2.88L15.64-2.88L13.42-7.86ZM8.96-17.88L5.33-9.73L12.59-9.73L8.96-17.88Z" transform="translate(35.322265625 20.947265625)" data-glyph-w="17.919921875"></path><path fill="rgb(36, 111, 221)" d="M8.67-9.73L3.09-9.73L3.09-2.88L1.22-2.88L1.22-20.31L9.63-20.31Q11.82-20.31 13.37-18.76L13.37-18.76Q14.92-17.21 14.92-15.01L14.92-15.01Q14.92-12.83 13.37-11.28L13.37-11.28Q12.29-10.21 10.90-9.88L10.90-9.88L16.16-2.88L13.83-2.88L8.67-9.73ZM9.63-18.44L3.09-18.44L3.09-11.60L9.63-11.60Q11.05-11.60 12.05-12.60L12.05-12.60Q13.05-13.60 13.05-15.01L13.05-15.01Q13.05-16.44 12.05-17.44L12.05-17.44Q11.05-18.44 9.63-18.44L9.63-18.44Z" transform="translate(53.2421875 20.947265625)" data-glyph-w="15.6494140625"></path><path fill="rgb(36, 111, 221)" d="M7.90-18.75Q9.86-18.75 11.22-17.80L11.22-17.80Q12.56-16.85 12.56-15.49L12.56-15.49L14.43-15.49Q14.43-17.63 12.56-19.12L12.56-19.12Q10.67-20.63 7.90-20.63L7.90-20.63Q5.11-20.63 3.27-19.32L3.27-19.32Q1.35-17.97 1.35-15.80L1.35-15.80Q1.35-13.48 3.20-12.34L3.20-12.34Q4.44-11.58 7.28-11.10L7.28-11.10Q10.46-10.53 11.34-10.17L11.34-10.17Q13.18-9.41 13.18-7.70L13.18-7.70Q13.18-6.23 11.63-5.31L11.63-5.31Q10.16-4.43 7.90-4.43L7.90-4.43Q5.59-4.43 4.08-5.62L4.08-5.62Q2.60-6.77 2.60-8.48L2.60-8.48L0.73-8.48Q0.73-5.99 2.73-4.30L2.73-4.30Q4.79-2.56 7.90-2.56L7.90-2.56Q10.97-2.56 12.95-3.91L12.95-3.91Q15.05-5.32 15.05-7.70L15.05-7.70Q15.05-10.10 13.21-11.28L13.21-11.28Q11.94-12.10 9.14-12.60L9.14-12.60Q5.83-13.20 5.08-13.49L5.08-13.49Q3.22-14.21 3.22-15.80L3.22-15.80Q3.22-17.16 4.59-17.98L4.59-17.98Q5.90-18.75 7.90-18.75L7.90-18.75Z" transform="translate(68.8916015625 20.947265625)" data-glyph-w="15.78369140625"></path></g></svg></g>
        </g><g id="shape_W7YDZ35Q8m" ref="shape_W7YDZ35Q8m" key="shape_W7YDZ35Q8m" transform="translate(260.52809143066,286.0569152832) rotate(0,148.27399295228,35.1335) scale(1,1)" style="cursor:move;display:inline;opacity:1;" filter="">
            <g style="display:inline"><svg xmlns="http://www.w3.org/2000/svg" version="1.1" xmlns:xlink="http://www.w3.org/1999/xlink" overflow="hidden" style="top:0; left: 0" width="135.5479859045577" height="70.267" viewBox="0 0 130.5479859045577 70.267" preserveAspectRatio="none" data-parent="shape_W7YDZ35Q8m"><rect fill="rgba(0,0,0,0)" width="135.5479859045577" height="70.267"></rect> <rect opacity="0"></rect><g transform="translate(0 0)" data-width="111.72"><path fill="#246fdd" d="M1.22-5.22L22.68-5.22L22.68-7.54L3.48-7.54L3.48-12.76L22.68-12.76L22.68-15.14L1.51-15.14L4.35-22.45L13.11-22.45L12.30-20.36L22.68-20.36L22.68-23.61L1.10-23.61L1.10-41.82L52.26-41.82L52.26-29.06Q52.26-27.90 51.82-26.91Q51.39-25.93 50.66-25.20Q49.94-24.48 48.92-24.04Q47.91-23.61 46.81-23.61L46.81-23.61L30.57-23.61L30.57-20.36L50.87-20.36L50.87-15.14L30.57-15.14L30.57-12.76L49.76-12.76L49.76-7.54L30.57-7.54L30.57-5.22L52.03-5.22L52.03 0.06L1.22 0.06L1.22-5.22ZM44.89-36.71L8.47-36.71L8.47-34.68L44.89-34.68L44.89-36.71ZM8.47-30.74L8.47-28.65L43.96-28.65Q44.89-28.65 44.89-29.58L44.89-29.58L44.89-30.74L8.47-30.74Z" transform="translate(5 49.822) skewX(-15)" data-glyph-w="53.36"></path><path fill="#246fdd" d="M48.02-28.25L14.67-28.25L14.67-33.58L48.02-33.58L48.02-28.25ZM10.79-5.22L9.16 0.12L1.39 0.12L3.07-5.22L3.07-41.93L10.79-41.93L51.91-41.93L51.91-36.54L10.79-36.54L10.79-24.59L51.91-24.59L51.91-19.26L22.68-19.26L22.68-7.08Q22.68-6.26 23.20-5.74Q23.72-5.22 24.48-5.22L24.48-5.22L28.01-5.22L29.93 0.12L21.92 0.12Q20.59 0.12 19.43-0.38Q18.27-0.87 17.40-1.74Q16.53-2.61 16.04-3.77Q15.54-4.93 15.54-6.26L15.54-6.26L15.54-19.26L10.79-19.26L10.79-5.22ZM50.63-17.23L45.24-4.99L43.73-4.99L47.50 0.12L39.73 0.12L26.97-17.23L34.74-17.23L40.54-9.40L43.96-17.23L50.63-17.23Z" transform="translate(58.36 49.822) skewX(-15)" data-glyph-w="53.36"></path></g></svg></g>
        </g></svg>